HIERARCHY
ROOT Hips
{
	OFFSET 0.000000 71.427986 0.000000
	CHANNELS 6 Xposition Yposition Zposition Xrotation Yrotation Zrotation
	JOINT Pelvis
	{
		OFFSET 0.000000 0.000000 0.000000
		CHANNELS 3 Xrotation Yrotation Zrotation
		JOINT LeftUpLeg
		{
			OFFSET 6.797100 -2.508499 -1.318700
			CHANNELS 3 Xrotation Yrotation Zrotation
			JOINT LeftLeg
			{
				OFFSET 0.069008 -29.241863 0.690200
				CHANNELS 3 Xrotation Yrotation Zrotation
				JOINT LeftFoot
				{
					OFFSET -0.069008 -29.568123 -0.266800
					CHANNELS 3 Xrotation Yrotation Zrotation
					JOINT LeftToeBase
					{
						OFFSET 3.145500 -8.631000 16.059900
						CHANNELS 3 Xrotation Yrotation Zrotation
						End Site
						{
							OFFSET 0.000000 18.501587 0.000000
						}
					}
				}
			}
			JOINT Left_ShortSleeve
			{
				OFFSET 0.265923 -10.480953 1.153800
				CHANNELS 3 Xrotation Yrotation Zrotation
				End Site
				{
					OFFSET 1.725763 19.823879 0.000000
				}
			}
		}
		JOINT RightUpLeg
		{
			OFFSET -6.797100 -2.508499 -1.318700
			CHANNELS 3 Xrotation Yrotation Zrotation
			JOINT RightLeg
			{
				OFFSET -0.082453 -29.241932 0.688000
				CHANNELS 3 Xrotation Yrotation Zrotation
				JOINT RightFoot
				{
					OFFSET 0.082453 -29.568058 -0.264600
					CHANNELS 3 Xrotation Yrotation Zrotation
					JOINT RightToeBase
					{
						OFFSET -3.115300 -8.682800 16.113400
						CHANNELS 3 Xrotation Yrotation Zrotation
						End Site
						{
							OFFSET 0.000000 18.567114 0.000000
						}
					}
				}
			}
			JOINT Right_ShortSleeve
			{
				OFFSET -0.265923 -10.480953 1.153800
				CHANNELS 3 Xrotation Yrotation Zrotation
				End Site
				{
					OFFSET -1.725766 19.823910 0.000000
				}
			}
		}
	}
	JOINT Spine
	{
		OFFSET 0.000000 13.368103 0.470500
		CHANNELS 3 Xrotation Yrotation Zrotation
		JOINT Spine1
		{
			OFFSET 0.147000 13.837402 0.538800
			CHANNELS 3 Xrotation Yrotation Zrotation
			JOINT Spine2
			{
				OFFSET 0.168000 16.242897 -1.435500
				CHANNELS 3 Xrotation Yrotation Zrotation
				JOINT Neck
				{
					OFFSET 0.217200 18.631500 -1.679100
					CHANNELS 3 Xrotation Yrotation Zrotation
					JOINT Head
					{
						OFFSET 0.000000 6.599396 1.385900
						CHANNELS 3 Xrotation Yrotation Zrotation
						JOINT Hat
						{
							OFFSET -0.532200 27.220596 -10.096100
							CHANNELS 3 Xrotation Yrotation Zrotation
							End Site
							{
								OFFSET 0.000000 22.029861 0.000000
							}
						}
						JOINT HairD
						{
							OFFSET -10.777400 17.437393 -1.325900
							CHANNELS 3 Xrotation Yrotation Zrotation
							JOINT HairD1
							{
								OFFSET -3.290299 -11.051193 1.062200
								CHANNELS 3 Xrotation Yrotation Zrotation
								End Site
								{
									OFFSET 0.000000 11.579437 0.000000
								}
							}
						}
						JOINT HairB
						{
							OFFSET -10.777400 17.437393 1.467900
							CHANNELS 3 Xrotation Yrotation Zrotation
							JOINT HairB1
							{
								OFFSET -1.561200 -12.956299 3.590200
								CHANNELS 3 Xrotation Yrotation Zrotation
								End Site
								{
									OFFSET 0.000000 13.534866 0.000000
								}
							}
						}
						JOINT HairA
						{
							OFFSET 9.713100 17.437393 1.467900
							CHANNELS 3 Xrotation Yrotation Zrotation
							JOINT HairA1
							{
								OFFSET 1.561200 -12.956299 3.590200
								CHANNELS 3 Xrotation Yrotation Zrotation
								End Site
								{
									OFFSET 0.000000 13.534866 0.000000
								}
							}
						}
						JOINT HairC
						{
							OFFSET 9.713100 17.437393 -1.325900
							CHANNELS 3 Xrotation Yrotation Zrotation
							JOINT HairC1
							{
								OFFSET 3.290300 -11.051193 1.062200
								CHANNELS 3 Xrotation Yrotation Zrotation
								End Site
								{
									OFFSET 0.000000 11.579437 0.000000
								}
							}
						}
					}
				}
				JOINT LeftShoulder
				{
					OFFSET 5.101800 15.108002 -2.763700
					CHANNELS 3 Xrotation Yrotation Zrotation
					JOINT LeftArm
					{
						OFFSET 9.825497 2.506317 -1.597400
						CHANNELS 3 Xrotation Yrotation Zrotation
						JOINT LeftForeArm
						{
							OFFSET 21.966244 0.000000 0.000000
							CHANNELS 3 Xrotation Yrotation Zrotation
							JOINT LeftHand
							{
								OFFSET 33.879036 0.000000 0.000000
								CHANNELS 3 Xrotation Yrotation Zrotation
								JOINT LeftHandThumb1
								{
									OFFSET 6.715286 -2.359680 3.363841
									CHANNELS 3 Xrotation Yrotation Zrotation
									JOINT LeftHandThumb2
									{
										OFFSET 2.507072 -1.447464 1.447461
										CHANNELS 3 Xrotation Yrotation Zrotation
										JOINT LeftHandThumb3
										{
											OFFSET 2.898338 -1.673355 1.673357
											CHANNELS 3 Xrotation Yrotation Zrotation
											End Site
											{
												OFFSET -0.295959 3.727692 -0.131651
											}
										}
									}
								}
								JOINT LeftHandIndex1
								{
									OFFSET 14.190811 -0.254547 3.840278
									CHANNELS 3 Xrotation Yrotation Zrotation
									JOINT LeftHandIndex2
									{
										OFFSET 3.551727 0.000000 -0.000000
										CHANNELS 3 Xrotation Yrotation Zrotation
										JOINT LeftHandIndex3
										{
											OFFSET 2.894196 0.000000 0.000000
											CHANNELS 3 Xrotation Yrotation Zrotation
											End Site
											{
												OFFSET -1.000603 2.690872 0.366626
											}
										}
									}
								}
								JOINT LeftHandMiddle1
								{
									OFFSET 13.776489 0.000000 0.000000
									CHANNELS 3 Xrotation Yrotation Zrotation
									JOINT LeftHandMiddle2
									{
										OFFSET 3.438232 0.000000 0.000000
										CHANNELS 3 Xrotation Yrotation Zrotation
										JOINT LeftHandMiddle3
										{
											OFFSET 3.691551 0.000000 0.000000
											CHANNELS 3 Xrotation Yrotation Zrotation
											End Site
											{
												OFFSET -1.082298 3.499527 0.457670
											}
										}
									}
								}
								JOINT LeftHandRing1
								{
									OFFSET 13.966164 -0.268127 -3.067488
									CHANNELS 3 Xrotation Yrotation Zrotation
									JOINT LeftHandRing2
									{
										OFFSET 3.162567 0.000000 0.000000
										CHANNELS 3 Xrotation Yrotation Zrotation
										JOINT LeftHandRing3
										{
											OFFSET 3.324348 0.000000 0.000000
											CHANNELS 3 Xrotation Yrotation Zrotation
											End Site
											{
												OFFSET -0.861900 3.184998 0.405154
											}
										}
									}
								}
								JOINT LeftHandPinky1
								{
									OFFSET 13.131393 -0.168503 -5.746925
									CHANNELS 3 Xrotation Yrotation Zrotation
									JOINT LeftHandPinky2
									{
										OFFSET 2.849182 0.000000 0.000000
										CHANNELS 3 Xrotation Yrotation Zrotation
										JOINT LeftHandPinky3
										{
											OFFSET 2.805038 0.000000 0.000000
											CHANNELS 3 Xrotation Yrotation Zrotation
											End Site
											{
												OFFSET -0.882500 2.642609 0.325652
											}
										}
									}
								}
							}
							JOINT Left_Sleeve
							{
								OFFSET 6.592125 -0.646545 0.805568
								CHANNELS 3 Xrotation Yrotation Zrotation
								End Site
								{
									OFFSET -0.000179 20.275787 -0.000000
								}
							}
						}
					}
				}
				JOINT RightShoulder
				{
					OFFSET -5.731700 15.108002 -2.763700
					CHANNELS 3 Xrotation Yrotation Zrotation
					JOINT RightArm
					{
						OFFSET -9.825497 2.506317 -1.597400
						CHANNELS 3 Xrotation Yrotation Zrotation
						JOINT RightForeArm
						{
							OFFSET -21.966242 0.000000 0.000000
							CHANNELS 3 Xrotation Yrotation Zrotation
							JOINT RightHand
							{
								OFFSET -33.879032 0.000000 0.000000
								CHANNELS 3 Xrotation Yrotation Zrotation
								JOINT RightHandThumb1
								{
									OFFSET -6.715286 -2.359680 3.363841
									CHANNELS 3 Xrotation Yrotation Zrotation
									JOINT RightHandThumb2
									{
										OFFSET -2.507072 -1.447464 1.447461
										CHANNELS 3 Xrotation Yrotation Zrotation
										JOINT RightHandThumb3
										{
											OFFSET -2.898338 -1.673355 1.673357
											CHANNELS 3 Xrotation Yrotation Zrotation
											End Site
											{
												OFFSET 0.295959 3.727692 -0.131651
											}
										}
									}
								}
								JOINT RightHandIndex1
								{
									OFFSET -14.190811 -0.254547 3.840278
									CHANNELS 3 Xrotation Yrotation Zrotation
									JOINT RightHandIndex2
									{
										OFFSET -3.551727 0.000000 -0.000000
										CHANNELS 3 Xrotation Yrotation Zrotation
										JOINT RightHandIndex3
										{
											OFFSET -2.894196 0.000000 0.000000
											CHANNELS 3 Xrotation Yrotation Zrotation
											End Site
											{
												OFFSET 1.000603 2.690872 0.366626
											}
										}
									}
								}
								JOINT RightHandMiddle1
								{
									OFFSET -13.776489 0.000000 0.000000
									CHANNELS 3 Xrotation Yrotation Zrotation
									JOINT RightHandMiddle2
									{
										OFFSET -3.438232 0.000000 0.000000
										CHANNELS 3 Xrotation Yrotation Zrotation
										JOINT RightHandMiddle3
										{
											OFFSET -3.691551 0.000000 0.000000
											CHANNELS 3 Xrotation Yrotation Zrotation
											End Site
											{
												OFFSET 1.082298 3.499527 0.457670
											}
										}
									}
								}
								JOINT RightHandRing1
								{
									OFFSET -13.966164 -0.268127 -3.067488
									CHANNELS 3 Xrotation Yrotation Zrotation
									JOINT RightHandRing2
									{
										OFFSET -3.162567 0.000000 0.000000
										CHANNELS 3 Xrotation Yrotation Zrotation
										JOINT RightHandRing3
										{
											OFFSET -3.324348 0.000000 0.000000
											CHANNELS 3 Xrotation Yrotation Zrotation
											End Site
											{
												OFFSET 0.861900 3.184998 0.405154
											}
										}
									}
								}
								JOINT RightHandPinky1
								{
									OFFSET -13.131393 -0.168503 -5.746925
									CHANNELS 3 Xrotation Yrotation Zrotation
									JOINT RightHandPinky2
									{
										OFFSET -2.849182 0.000000 0.000000
										CHANNELS 3 Xrotation Yrotation Zrotation
										JOINT RightHandPinky3
										{
											OFFSET -2.805038 0.000000 0.000000
											CHANNELS 3 Xrotation Yrotation Zrotation
											End Site
											{
												OFFSET 0.882500 2.642609 0.325652
											}
										}
									}
								}
							}
							JOINT Right_Sleeve
							{
								OFFSET -6.592125 -0.646545 0.805568
								CHANNELS 3 Xrotation Yrotation Zrotation
								End Site
								{
									OFFSET 0.000179 20.275787 -0.000000
								}
							}
						}
					}
				}
				JOINT Bind_Right_JacketString
				{
					OFFSET -3.534800 11.969597 7.200700
					CHANNELS 3 Xrotation Yrotation Zrotation
					JOINT Bind_Right_JacketString1
					{
						OFFSET -0.319900 -6.102600 2.794100
						CHANNELS 3 Xrotation Yrotation Zrotation
						End Site
						{
							OFFSET 0.000000 6.719452 0.000000
						}
					}
				}
				JOINT Bind_Left_JacketString
				{
					OFFSET 2.904800 11.969597 7.200700
					CHANNELS 3 Xrotation Yrotation Zrotation
					JOINT Bind_Left_JacketString1
					{
						OFFSET 0.364800 -5.904503 3.186800
						CHANNELS 3 Xrotation Yrotation Zrotation
						End Site
						{
							OFFSET 0.000000 6.719513 0.000000
						}
					}
				}
				JOINT HairE
				{
					OFFSET 5.915200 17.612701 -11.592200
					CHANNELS 3 Xrotation Yrotation Zrotation
					JOINT HairE1
					{
						OFFSET 0.289200 -7.171898 -1.284500
						CHANNELS 3 Xrotation Yrotation Zrotation
						End Site
						{
							OFFSET 0.000000 7.291756 0.000000
						}
					}
				}
				JOINT HairF
				{
					OFFSET -0.864800 17.612701 -11.592200
					CHANNELS 3 Xrotation Yrotation Zrotation
					JOINT HairF1
					{
						OFFSET 0.000000 -14.087097 -2.127501
						CHANNELS 3 Xrotation Yrotation Zrotation
						End Site
						{
							OFFSET 0.000000 14.246841 0.000000
						}
					}
				}
				JOINT HairG
				{
					OFFSET -8.087700 17.612701 -11.592200
					CHANNELS 3 Xrotation Yrotation Zrotation
					JOINT HairG1
					{
						OFFSET -0.293600 -6.081398 -0.910100
						CHANNELS 3 Xrotation Yrotation Zrotation
						End Site
						{
							OFFSET 0.000000 6.156120 0.000000
						}
					}
				}
			}
		}
	}
	JOINT Pouch
	{
		OFFSET 0.000000 4.394501 10.847300
		CHANNELS 3 Xrotation Yrotation Zrotation
		End Site
		{
			OFFSET 0.000000 21.880577 0.000000
		}
	}
	JOINT Bag
	{
		OFFSET -13.229000 4.813004 -0.593300
		CHANNELS 3 Xrotation Yrotation Zrotation
		End Site
		{
			OFFSET 0.000000 21.880577 0.000000
		}
	}
	JOINT OccupyGuyFacialAnim_Joint
	{
		OFFSET 1.000000 -70.206398 -1.655000
		CHANNELS 3 Xrotation Yrotation Zrotation
		End Site
		{
			OFFSET 0.000000 21.880577 0.000000
		}
	}
}
MOTION
Frames: 5
Frame Time: 0.033333
-0.056618 70.692528 1.357822 -4.120362 -1.668230 0.448453 -0.000000 0.000000 -0.000000 -2.561649 8.473719 4.391582 14.670907 9.582515 1.398277 -7.031343 4.852221 -6.587527 -0.000000 -0.000000 -0.000000 0.000000 0.000000 -0.000000 -1.081392 -9.605827 -6.015777 16.362577 -9.444729 1.247734 -9.987695 -4.626681 4.966433 -0.000000 0.000000 -0.000000 0.000001 -0.000001 -0.000000 3.457216 1.699630 -2.304594 0.710881 0.526839 -0.263052 0.710199 0.523097 -0.267071 2.609732 -0.768570 0.156819 18.950512 -7.303239 0.624139 -0.000001 0.000001 -0.000000 -0.000001 0.000001 -0.000000 -0.000001 0.000001 -0.000000 -0.000001 0.000001 -0.000001 0.000000 0.000000 0.000000 -0.000001 0.000001 -0.000001 0.000000 0.000000 0.000000 -0.000001 0.000001 -0.000000 -0.000001 0.000001 -0.000000 2.730608 -4.471830 -12.384158 -6.603780 -10.273119 -60.669169 -0.000008 -16.775175 -0.000018 21.485689 -10.082266 -12.336712 3.397819 -6.557753 3.595384 15.353589 21.245852 9.263272 0.000001 0.000001 -0.000000 -1.222351 -0.461771 -28.262363 0.291709 1.827307 -18.139060 0.000005 0.000003 0.000000 0.100012 4.203580 -33.990669 0.439518 2.228206 -22.314274 0.000003 0.000003 0.000001 5.761712 10.460317 -44.834513 0.435441 2.218274 -22.209391 -0.000002 0.000001 0.000004 11.866676 15.214661 -50.260374 0.411971 2.159921 -21.594859 0.000001 0.000001 -0.000001 0.000003 0.000001 -0.000001 1.996585 1.476375 14.937834 -2.025627 7.814284 63.299973 -0.000001 12.108125 -0.000003 6.520801 12.380903 10.265372 -1.353050 9.115540 0.362950 17.058297 -29.720971 -6.078621 -0.000001 0.000000 0.000003 -1.823891 1.946415 21.104029 0.341696 -1.752636 22.062549 0.000003 -0.000001 0.000004 -0.809714 -1.799981 27.787977 0.365858 -1.811051 22.839181 0.000000 -0.000001 -0.000001 2.161592 -6.996769 31.854606 0.441459 -1.980945 25.124415 0.000002 -0.000003 -0.000001 4.447222 -11.624193 37.638857 0.491070 -2.083413 26.523590 0.000001 0.000000 -0.000001 0.000000 0.000001 -0.000001 0.000000 0.000000 0.000000 0.000000 -0.000000 0.000000 0.000000 0.000000 0.000000 0.000000 0.000000 0.000000 0.000000 0.000000 0.000000 0.000000 -0.000000 0.000000 0.000000 0.000000 0.000000 0.000000 0.000000 0.000000 0.000000 0.000000 0.000000 0.000000 -0.000000 0.000000 -0.000000 0.000000 -0.000000 -0.000000 0.000000 -0.000000 -0.000000 0.000000 -0.000000 
-0.117050 70.740730 1.384647 -4.668783 -1.278471 0.639923 -0.000000 0.000000 -0.000000 -1.554482 8.115478 4.164899 13.812960 9.597515 1.398268 -6.602314 4.822730 -6.575374 -0.000000 0.000000 -0.000000 -0.000000 0.000000 -0.000000 -0.317217 -9.674288 -6.091434 16.146229 -9.807508 1.247620 -9.985840 -4.627469 4.968105 -0.000000 -0.000002 -0.000000 -0.000000 0.000001 -0.000000 3.375116 1.740516 -2.247020 0.813255 0.554824 -0.212915 0.813567 0.538640 -0.220743 2.467052 -0.768570 0.126763 19.200543 -7.564091 0.438042 -0.000001 0.000000 0.000000 -0.000001 0.000000 0.000000 -0.000001 0.000000 0.000000 -0.000001 0.000000 0.000000 -0.000003 0.000000 0.000000 -0.000001 0.000000 0.000000 -0.000003 0.000000 0.000000 -0.000001 0.000000 0.000000 -0.000001 0.000000 0.000000 2.626362 -4.420288 -12.247012 -6.302309 -9.857184 -61.555256 -0.000003 -16.775180 0.000003 21.176955 -9.550984 -12.630661 3.351971 -6.505066 3.524645 15.353611 21.239631 9.262452 -0.000000 -0.000000 0.000001 -1.209755 -0.431281 -28.501129 0.300225 1.853078 -18.403996 0.000003 -0.000003 0.000001 0.107416 4.226775 -34.219046 0.448447 2.249817 -22.542802 0.000004 -0.000001 0.000002 5.766940 10.433871 -45.065489 0.444406 2.240070 -22.439634 0.000000 -0.000001 -0.000000 11.831293 15.171932 -50.479732 0.420623 2.181634 -21.823197 0.000000 -0.000003 0.000001 0.000002 -0.000000 0.000001 1.907341 1.617678 15.158888 -1.843173 7.672047 62.200996 0.000006 12.137821 -0.000020 6.552783 12.259214 10.224621 -1.353046 9.115548 0.362957 17.033740 -29.564713 -6.080819 -0.000001 -0.000000 0.000003 -1.788995 1.857921 21.250773 0.355067 -1.785244 22.495663 0.000004 0.000001 -0.000001 -0.795737 -1.844809 27.950736 0.379215 -1.842445 23.258437 0.000001 -0.000001 -0.000001 2.137648 -6.939710 32.077096 0.445305 -1.989106 25.235152 0.000000 -0.000001 -0.000001 4.360030 -11.503509 37.597190 0.503105 -2.107311 26.852489 0.000002 0.000003 0.000003 0.000001 0.000003 -0.000001 -0.000000 -0.000000 0.000000 -0.000000 0.000000 -0.000000 -0.000000 -0.000000 0.000000 -0.000000 -0.000000 0.000000 -0.000000 -0.000000 0.000000 -0.000000 0.000000 -0.000000 -0.000000 -0.000000 0.000000 -0.000000 -0.000000 0.000000 -0.000000 -0.000000 0.000000 -0.000000 0.000000 -0.000000 -0.000000 0.000000 -0.000000 -0.000000 0.000000 -0.000000 -0.000000 0.000000 -0.000000 
-0.183016 70.787628 1.440122 -5.213677 -0.976339 0.833215 -0.000000 -0.000000 -0.000000 -0.478568 7.842757 3.956766 12.881590 9.595809 1.398207 -6.166418 4.798046 -6.577581 -0.000000 -0.000002 0.000000 -0.000000 0.000000 -0.000000 0.465994 -9.746548 -6.165685 15.904744 -9.928196 1.247513 -9.998320 -4.783125 4.937019 -0.000000 0.000000 0.000000 0.000001 -0.000000 -0.000001 3.292382 1.777124 -2.170892 0.938552 0.563721 -0.157259 0.939911 0.554862 -0.165820 1.946646 -0.744795 0.073013 18.554964 -7.702780 0.201456 0.000002 -0.000000 -0.000000 0.000002 -0.000000 -0.000000 0.000002 -0.000000 0.000000 0.000002 -0.000000 0.000000 0.000001 0.000000 0.000000 0.000002 -0.000000 0.000000 0.000001 0.000000 0.000000 0.000002 -0.000000 -0.000000 0.000002 -0.000000 -0.000000 2.494883 -4.343247 -12.133281 -5.882134 -9.263872 -62.536802 -0.000002 -16.775184 -0.000010 20.908119 -8.823543 -13.117924 3.219756 -6.352610 3.321042 15.353692 21.215440 9.259328 0.000002 0.000001 -0.000001 -1.172774 -0.344391 -29.188417 0.325372 1.926961 -19.166505 -0.000000 -0.000002 -0.000000 0.129229 4.293378 -34.876315 0.474613 2.311817 -23.200580 0.000003 0.000002 0.000001 5.780791 10.358218 -45.730043 0.470663 2.302573 -23.102292 -0.000001 0.000004 0.000002 11.726309 15.053373 -51.101659 0.446005 2.243928 -22.480352 -0.000003 0.000002 0.000003 0.000000 0.000001 0.000001 1.802465 1.752112 15.378255 -1.591410 7.381498 61.169870 -0.000001 12.216027 0.000007 6.571562 12.132206 10.186703 -1.353049 9.115536 0.362943 16.966818 -29.132440 -6.085314 0.000000 0.000001 -0.000000 -1.690892 1.612190 21.680019 0.394197 -1.876919 23.720573 0.000004 -0.000001 0.000002 -0.755293 -1.972842 28.430948 0.418357 -1.930935 24.447486 0.000003 0.000002 0.000003 2.068883 -6.780715 32.724136 0.456836 -2.013371 25.565203 0.000004 -0.000002 -0.000000 4.119480 -11.162339 37.510327 0.538217 -2.175229 27.792036 0.000001 0.000001 -0.000003 0.000001 -0.000001 0.000000 -0.000000 -0.000000 -0.000000 -0.000000 0.000000 -0.000000 -0.000000 -0.000000 -0.000000 -0.000000 -0.000000 -0.000000 -0.000000 -0.000000 -0.000000 -0.000000 0.000000 -0.000000 -0.000000 -0.000000 -0.000000 -0.000000 -0.000000 -0.000000 -0.000000 -0.000000 -0.000000 -0.000000 0.000000 -0.000000 -0.000000 -0.000000 -0.000000 -0.000000 -0.000000 -0.000000 -0.000000 -0.000000 -0.000000 
-0.247680 70.819000 1.504653 -5.768593 -0.781151 1.033980 0.000001 0.000000 -0.000000 0.548460 7.666064 3.756520 12.107558 9.592982 1.398173 -5.824244 4.792407 -6.593622 0.000000 0.000002 0.000000 0.000000 0.000000 -0.000000 1.136984 -9.808288 -6.293432 15.880948 -9.930798 1.247294 -10.115705 -4.946723 4.909453 -0.000000 0.000000 -0.000000 0.000000 0.000000 0.000000 3.201635 1.798200 -2.015504 1.149626 0.566928 -0.069318 1.152715 0.571687 -0.081432 1.103461 -0.683608 0.010066 17.223394 -7.755901 -0.156074 0.000002 0.000000 0.000000 0.000002 0.000000 0.000000 0.000002 0.000000 0.000000 0.000002 0.000000 0.000000 -0.000000 0.000000 0.000000 0.000002 0.000000 0.000000 -0.000000 0.000000 0.000000 0.000002 0.000000 0.000000 0.000002 0.000000 0.000000 2.365984 -4.237519 -12.054259 -5.495498 -8.596199 -63.383971 -0.000002 -16.775179 -0.000002 20.583217 -8.048210 -13.691785 3.009582 -6.107915 2.998119 15.353794 21.176153 9.254249 0.000001 -0.000000 0.000001 -1.111933 -0.208979 -30.280875 0.367356 2.043665 -20.378134 0.000004 -0.000001 -0.000002 0.167323 4.401248 -35.920651 0.517676 2.409702 -24.245734 -0.000002 0.000004 0.000001 5.799113 10.239613 -46.785484 0.513880 2.401271 -24.155263 0.000002 -0.000000 -0.000003 11.555603 14.873261 -52.093088 0.487772 2.342252 -23.524633 0.000001 0.000001 0.000001 -0.000001 0.000002 0.000000 1.692382 1.881888 15.597418 -1.344600 7.091892 60.276631 0.000006 12.326412 -0.000017 6.586817 11.982821 10.152315 -1.353051 9.115544 0.362956 16.868074 -28.479075 -6.088650 0.000001 -0.000001 -0.000001 -1.537203 1.240076 22.375748 0.458954 -2.017776 25.625620 -0.000002 -0.000003 -0.000002 -0.690963 -2.170577 29.216940 0.483116 -2.067365 26.303467 -0.000004 -0.000002 0.000001 1.957079 -6.539765 33.764907 0.476204 -2.053362 26.111477 -0.000003 -0.000000 -0.000004 3.756966 -10.632323 37.435980 0.595753 -2.280975 29.271814 -0.000001 -0.000001 0.000000 0.000002 0.000001 -0.000002 0.000000 -0.000000 0.000000 0.000000 0.000000 0.000000 0.000000 -0.000000 -0.000000 0.000000 -0.000000 -0.000000 0.000000 -0.000000 0.000000 0.000000 0.000000 0.000000 0.000000 -0.000000 -0.000000 0.000000 -0.000000 -0.000000 0.000000 -0.000000 0.000000 0.000000 0.000000 0.000000 0.000001 0.000000 -0.000000 0.000001 0.000000 -0.000000 0.000001 0.000000 -0.000000 
-0.313225 70.858994 1.568935 -6.283556 -0.634531 1.240840 0.000001 -0.000000 -0.000000 1.653903 7.541319 3.539203 11.103593 9.589662 1.398142 -5.372261 4.762133 -6.589634 -0.000000 0.000002 0.000000 -0.000000 0.000000 -0.000000 1.813946 -9.871960 -6.420025 15.742073 -9.933342 1.249502 -10.170831 -5.068339 4.870506 -0.000000 -0.000002 0.000000 -0.000000 -0.000000 -0.000000 3.101004 1.781404 -1.825310 1.360333 0.563663 0.000801 1.364826 0.574836 -0.013918 -0.017610 -0.605799 -0.064295 15.994394 -7.751385 -0.460975 0.000002 0.000000 -0.000000 0.000002 0.000000 -0.000000 0.000002 0.000000 -0.000000 0.000002 0.000000 -0.000000 -0.000000 0.000000 0.000000 0.000002 0.000000 -0.000000 -0.000000 0.000000 0.000000 0.000002 0.000000 -0.000000 0.000002 0.000000 -0.000000 2.254680 -4.091279 -11.978738 -5.119864 -7.954868 -64.189640 0.000002 -16.775177 -0.000008 20.205691 -7.222409 -14.304913 2.730333 -5.778002 2.569910 15.353956 21.122519 9.247353 0.000000 -0.000000 -0.000001 -1.027018 -0.033973 -31.735139 0.427011 2.197511 -21.990568 -0.000002 -0.000002 -0.000001 0.222771 4.545738 -37.310373 0.577726 2.538715 -25.636647 -0.000001 0.000002 0.000001 5.816715 10.085013 -48.188989 0.574191 2.531328 -25.556558 0.000001 0.000003 0.000003 11.321193 14.650016 -53.414374 0.546148 2.471902 -24.914286 0.000001 0.000000 0.000001 0.000000 0.000000 -0.000000 1.574739 2.017550 15.815948 -1.080417 6.738449 59.424080 0.000000 12.452688 0.000006 6.598979 11.826904 10.118806 -1.353058 9.115533 0.362951 16.748030 -27.659380 -6.087351 0.000002 -0.000001 0.000000 -1.333780 0.773615 23.322309 0.549937 -2.197299 28.099414 -0.000000 -0.000001 -0.000003 -0.603877 -2.424564 30.297053 0.574118 -2.241959 28.723534 0.000002 -0.000000 -0.000001 1.801771 -6.238469 35.168525 0.503782 -2.108654 26.870782 0.000001 0.000001 0.000000 3.301811 -9.946455 37.432015 0.675668 -2.417916 31.221307 -0.000000 -0.000000 0.000000 0.000001 0.000001 -0.000001 0.000000 -0.000000 0.000000 -0.000000 0.000000 0.000000 0.000000 -0.000000 -0.000000 0.000000 -0.000000 -0.000000 0.000000 -0.000000 0.000000 -0.000000 0.000000 -0.000000 0.000000 -0.000000 -0.000000 0.000000 -0.000000 -0.000000 0.000000 -0.000000 0.000000 -0.000000 0.000000 -0.000000 0.000001 -0.000000 -0.000000 0.000001 -0.000000 -0.000000 0.000001 -0.000000 -0.000000 
